<?xml version="1.0" encoding="utf-8"?><svg viewBox="0 0 177 221" xmlns="http://www.w3.org/2000/svg" xmlns:xlink="http://www.w3.org/1999/xlink"><style>:root>svg{display:none}:root>svg:target{display:block}</style><svg fill="none" viewBox="0 0 9 18" id="Facebook" xmlns="http://www.w3.org/2000/svg"><path fill-rule="evenodd" clip-rule="evenodd" d="M7.738 8.675H5.315v8.674H1.7V8.674H0v-3.06h1.7V3.615c0-1.403.681-3.614 3.615-3.614h2.678v2.976H6.08c-.298 0-.765.17-.765.85v1.787h2.72l-.297 3.06Z" fill="#18063C"/></svg><svg fill="none" viewBox="0 0 16 17" id="Instagram" xmlns="http://www.w3.org/2000/svg"><g clip-path="url(#ba)" fill="#18063C"><path fill-rule="evenodd" clip-rule="evenodd" d="M7.772 0c1.039.04 2.115.04 3.154.079.928.04 1.781.197 2.598.71 1.039.672 1.67 1.658 1.892 2.922.111.75.148 1.539.185 2.29.038 1.657 0 3.315 0 4.973 0 .868-.037 1.737-.296 2.566-.52 1.618-1.596 2.605-3.155 2.92-.705.159-1.447.159-2.152.198-1.558.04-3.08 0-4.638 0-.816 0-1.633-.04-2.412-.316-1.521-.552-2.45-1.697-2.746-3.355-.148-.75-.148-1.54-.186-2.29-.037-1.657 0-3.315 0-4.973 0-.869.038-1.737.297-2.566C.833 1.539 1.91.553 3.467.237 4.172.079 4.915.079 5.62.039 6.325 0 7.03 0 7.772 0Zm6.419 8.171c-.038 0 0 0 0 0-.038-.67-.038-1.302-.038-1.974 0-.631-.037-1.263-.11-1.894-.15-1.421-.928-2.369-2.227-2.645-.668-.158-1.41-.158-2.078-.158a66.582 66.582 0 0 0-3.97 0c-.669 0-1.337.04-1.967.158-1.114.197-1.893.868-2.227 2.053-.111.394-.148.79-.185 1.184-.037 1.5-.037 3-.037 4.5 0 .947.037 1.934.11 2.882.112 1.42.929 2.407 2.264 2.644.668.119 1.373.158 2.078.158 1.3.04 2.598 0 3.934 0 .594 0 1.187-.04 1.78-.118a2.508 2.508 0 0 0 1.522-.632c.742-.632 1.002-1.46 1.04-2.408.073-1.184.073-2.447.11-3.75Z"/><path fill-rule="evenodd" clip-rule="evenodd" d="M11.78 8.33c0 2.368-1.78 4.263-4.007 4.263-2.226 0-4.007-1.895-4.007-4.303 0-2.329 1.818-4.224 4.044-4.224 2.19 0 3.97 1.895 3.97 4.264Zm-4.006 2.763c1.41 0 2.598-1.263 2.598-2.763S9.184 5.566 7.774 5.566c-1.447 0-2.597 1.264-2.597 2.764-.037 1.5 1.15 2.763 2.597 2.763Z"/><path d="M12.854 3.637c0 .52-.409.964-.928.964-.52 0-.965-.445-.928-.964 0-.52.408-.928.928-.928s.928.408.928.928Z"/></g><defs><clipPath id="ba"><path fill="#fff" d="M0 0h15.618v16.676H0z"/></clipPath></defs></svg><svg fill="none" viewBox="0 0 18 17" id="Linkedin" xmlns="http://www.w3.org/2000/svg"><path fill-rule="evenodd" clip-rule="evenodd" d="M17.346 10.148v6.406h-3.74v-5.985c0-1.497-.514-2.525-1.87-2.525-1.03 0-1.637.701-1.918 1.356-.093.233-.14.56-.14.888v6.266h-3.74s.046-10.147 0-11.176h3.74v1.59s0 .047-.047.047h.047v-.047c.514-.748 1.356-1.87 3.367-1.87 2.431 0 4.301 1.636 4.301 5.05ZM2.104 0C.842.001 0 .843 0 1.918c0 1.076.795 1.917 2.057 1.917h.047c1.31 0 2.104-.841 2.104-1.917C4.161.843 3.367.001 2.104.001ZM.187 16.554h3.694V5.378H.188v11.176Z" fill="#18063C"/></svg><svg fill="none" viewBox="0 0 18 15" id="Twitter" xmlns="http://www.w3.org/2000/svg"><path fill-rule="evenodd" clip-rule="evenodd" d="M17.347 2.11c-.653.286-1.306.49-2.04.572.734-.449 1.306-1.143 1.55-1.959a7.511 7.511 0 0 1-2.244.857A3.607 3.607 0 0 0 12 .437a3.554 3.554 0 0 0-3.55 3.551c0 .286.04.572.08.817C5.552 4.64 2.94 3.254 1.185 1.09a3.391 3.391 0 0 0-.49 1.796c0 1.225.612 2.327 1.592 2.98a3.272 3.272 0 0 1-1.633-.45v.042c0 1.714 1.225 3.183 2.857 3.51a3.48 3.48 0 0 1-.938.122c-.245 0-.45-.04-.654-.081.45 1.428 1.756 2.449 3.347 2.49a7.194 7.194 0 0 1-4.408 1.51c-.286 0-.571 0-.857-.04a9.99 9.99 0 0 0 5.47 1.59c6.571 0 10.122-5.428 10.122-10.122v-.449a7.635 7.635 0 0 0 1.755-1.877Z" fill="#18063C"/></svg><svg fill="none" viewBox="0 0 61 138" id="Vector" xmlns="http://www.w3.org/2000/svg"><path opacity=".4" d="M1 2.058c21.519-.33 58.995.595 36.748 6.945C9.938 16.94-9.925 36.783 13.91 32.815c19.07-3.175 45.686-6.614 56.611-7.937 10.925-2.315 26.22-2.778 0 13.89-32.775 20.835-51.645 38.694-38.734 39.687 12.912.992 19.864-5.953 14.898 10.913C41.72 106.235 35.761 118.141 63.57 136" stroke="#FF553E" stroke-width="3"/></svg><svg fill="none" viewBox="0 0 90 125" id="Vector_(1)" xmlns="http://www.w3.org/2000/svg"><path opacity=".4" d="M88 111.098C73.663 89.938 43.816 38.294 39.123 1M72.36 123c-9.775-5.951-37.732-16.663-71.36-11.902" stroke="#FF553E" stroke-width="4"/></svg><svg fill="none" viewBox="0 0 139 221" id="Vector_(10)" xmlns="http://www.w3.org/2000/svg"><path opacity=".4" d="M1 2.094c34.84-.536 95.515.964 59.495 11.247-45.024 12.854-77.184 44.988-38.592 38.561 30.874-5.141 73.969-10.711 91.657-12.854 17.688-3.748 42.451-4.498 0 22.494-53.065 33.741-83.617 62.662-62.713 64.269 20.904 1.607 32.16-9.64 24.12 17.674-8.04 27.314-17.688 46.594 27.337 75.515" stroke="#FF553E" stroke-width="3"/></svg><svg fill="none" viewBox="0 0 100 118" id="Vector_(11)" xmlns="http://www.w3.org/2000/svg"><path opacity=".5" d="M3 85.86C19.711 61.303 22.148 21.055 21.278 4 44.256 26.512 81.333 45.783 97 52.605 76.111 71.023 74.37 101.209 76.111 114 46.867 91.488 15.185 85.86 3 85.86Z" stroke="#D26D60" stroke-width="3"/></svg><svg fill="none" viewBox="0 0 177 117" id="Vector_(2)" xmlns="http://www.w3.org/2000/svg"><path opacity=".3" d="m1 71.922 55.36 43.026c1.194.928 2.946.247 3.2-1.244l8.433-49.68c.277-1.628 2.297-2.238 3.43-1.035l23.24 24.72c1.175 1.248 3.274.538 3.448-1.168l8.445-82.909c.209-2.05 3.006-2.483 3.825-.592l35.404 81.782c.787 1.818 3.453 1.509 3.804-.44l4.982-27.719c.343-1.91 2.933-2.261 3.772-.51L175 90.901" stroke="#FF553E" stroke-width="3"/></svg><svg fill="none" viewBox="0 0 59 70" id="Vector_(3)" xmlns="http://www.w3.org/2000/svg"><path opacity=".5" d="M3 50.14C12.448 36.297 13.825 13.611 13.333 4c12.99 12.688 33.953 23.55 42.81 27.395C44.333 41.777 43.349 58.791 44.333 66 27.8 53.312 9.89 50.14 3 50.14Z" stroke="#D26D60" stroke-width="3"/></svg><svg fill="none" viewBox="0 0 113 130" id="Vector_(4)" xmlns="http://www.w3.org/2000/svg"><path opacity=".5" d="M106.043 1.019a1.5 1.5 0 1 0-2.66 1.387l2.66-1.387ZM71.898 67.842l-.298-1.47.298 1.47Zm-70.83 48.943a1.5 1.5 0 0 0-.232 2.109l8.442 10.534a1.5 1.5 0 0 0 2.341-1.876l-7.504-9.364 9.364-7.505a1.5 1.5 0 1 0-1.877-2.341l-10.534 8.443ZM103.383 2.405c4.576 8.776 8.396 22.451 5.231 35.025-1.573 6.252-4.876 12.253-10.715 17.299-5.85 5.055-14.316 9.212-26.299 11.643l.596 2.94C84.556 66.805 93.533 62.467 99.861 57c6.339-5.478 9.95-12.031 11.663-18.836 3.407-13.54-.709-27.992-5.481-37.144l-2.66 1.387ZM71.6 66.373c-14.956 3.034-25.438.881-32.21-3.51-6.765-4.387-10.013-11.122-10.332-17.685-.32-6.596 2.318-12.91 7.201-16.514 4.818-3.555 12.123-4.685 21.624-.337l1.249-2.728c-10.26-4.694-18.77-3.692-24.654.651-5.82 4.295-8.777 11.646-8.416 19.074.362 7.46 4.067 15.109 11.695 20.055 7.62 4.942 18.966 7.073 34.44 3.934l-.597-2.94ZM57.883 28.326c9.374 4.289 14.655 12.24 16.319 21.769 1.671 9.572-.32 20.74-5.592 31.212-10.533 20.921-33.983 38.735-66.44 35.158l-.328 2.981c33.869 3.734 58.43-14.907 69.447-36.79 5.503-10.929 7.671-22.75 5.868-33.077-1.81-10.37-7.638-19.228-18.025-23.981l-1.249 2.728Z" fill="#D26D60"/></svg><svg fill="none" viewBox="0 0 135 156" id="Vector_(9)" xmlns="http://www.w3.org/2000/svg"><path opacity=".2" d="M9.082 1.246a1 1 0 1 1 1.753.962l-1.753-.962Zm39.486 82.641.22-.975-.22.975Zm85.253 62.674c.423.355.479.985.125 1.409l-5.777 6.901a1 1 0 1 1-1.534-1.283l5.135-6.135-6.134-5.135a1 1 0 1 1 1.283-1.534l6.902 5.777ZM10.835 2.208C4.922 12.982-.22 29.911 3.403 45.725 5.21 53.61 9.196 61.23 16.38 67.711c7.192 6.488 17.633 11.874 32.407 15.2l-.439 1.952c-15.024-3.383-25.803-8.897-33.307-15.667C7.529 62.42 3.345 54.426 1.454 46.172-2.318 29.71 3.033 12.268 9.082 1.246l1.753.962Zm37.952 80.704c18.453 4.154 31.64 1.793 40.322-3.578 8.677-5.368 12.981-13.816 13.562-22.129.583-8.335-2.577-16.46-8.746-21.218-6.126-4.726-15.416-6.278-27.427-1.089l-.793-1.836c12.52-5.409 22.616-3.925 29.442 1.34 6.783 5.234 10.141 14.055 9.519 22.943-.623 8.91-5.245 17.96-14.505 23.69-9.255 5.725-23.017 8.06-41.813 3.828l.44-1.951Zm17.711-48.014c-11.924 5.152-18.784 15.04-21.126 26.948-2.347 11.935-.146 25.902 6.123 39.045 12.531 26.269 41.201 49.024 81.595 45.441l.177 1.992c-41.337 3.667-70.737-19.655-83.577-46.572-6.416-13.45-8.726-27.855-6.28-40.292 2.451-12.466 9.688-22.951 22.295-28.398l.793 1.836Z" fill="#FF553E"/></svg><svg fill="none" viewBox="0 0 98 127" id="Vector_10" xmlns="http://www.w3.org/2000/svg"><path d="M1.103.006a1 1 0 0 0-.206 1.99l.206-1.99ZM89.275 126.19a1 1 0 0 0 1.413.037l6.528-6.196a1 1 0 1 0-1.377-1.45l-5.802 5.507-5.508-5.802a1 1 0 1 0-1.45 1.377l6.196 6.527ZM.897 1.996c15.123 1.561 37.749 9.595 56.286 28.64C75.695 49.654 90.194 79.718 89 125.475l2 .052c1.206-46.243-13.461-76.846-32.383-96.286C39.72 9.828 16.647 1.61 1.103.006l-.206 1.99Z" fill="#7AD6E1"/></svg><svg fill="none" viewBox="0 0 99 127" id="Vector_11" xmlns="http://www.w3.org/2000/svg"><path d="M96.966.006a1 1 0 0 1 .205 1.99l-.205-1.99ZM8.794 126.19a1 1 0 0 1-1.414.037L.852 120.03a1 1 0 1 1 1.377-1.45l5.802 5.507 5.508-5.802a1 1 0 1 1 1.45 1.377l-6.195 6.527ZM97.17 1.996c-15.123 1.561-37.748 9.595-56.286 28.64-18.511 19.018-33.01 49.082-31.817 94.839l-2 .052C5.863 79.284 20.53 48.681 39.453 29.241 58.347 9.828 81.422 1.61 96.966.006l.205 1.99Z" fill="#FE6292" fill-opacity=".5"/></svg><svg fill="none" viewBox="0 0 172 147" id="Vector_23" xmlns="http://www.w3.org/2000/svg"><path opacity=".2" d="M126.047 144C89.433 118.933 29.427 115.278 4 116.583 37.563 82.117 66.295 26.5 76.465 3 103.926 34.333 148.93 36.944 168 34.333 134.437 78.2 126.047 125.722 126.047 144Z" stroke="#D26D60" stroke-width="3"/></svg></svg>